<mxfile host="app.diagrams.net" modified="2023-07-21T19:31:29.857Z" agent="Mozilla/5.0 (Windows NT 10.0; Win64; x64) AppleWebKit/537.36 (KHTML, like Gecko) Chrome/114.0.0.0 Safari/537.36 Edg/114.0.1823.82" version="21.6.5" etag="PVgFKgJL2PtYY6EWjRiP" type="github">
  <diagram name="Page-1" id="TH4dhpMod3vVABup0tux">
    <mxGraphModel>
      <root>
        <mxCell id="0" />
        <mxCell id="1" parent="0" />
      </root>
    </mxGraphModel>
  </diagram>
</mxfile>
